<svg xmlns="http://www.w3.org/2000/svg" width="48" height="48" viewBox="0 0 48 48" fill="none">
  <path opacity="0.4" d="M14.8612 38.1371C16.5212 38.1371 17.8812 39.4971 17.8812 41.1771C17.8812 42.8371 16.5212 44.1971 14.8612 44.1971C13.1812 44.1971 11.8212 42.8371 11.8212 41.1771C11.8212 39.4971 13.1812 38.1371 14.8612 38.1371ZM37.3612 38.1371C39.0212 38.1371 40.3812 39.4971 40.3812 41.1771C40.3812 42.8371 39.0212 44.1971 37.3612 44.1971C35.6812 44.1971 34.3212 42.8371 34.3212 41.1771C34.3212 39.4971 35.6812 38.1371 37.3612 38.1371Z" fill="url(#paint0_linear_9_325)"/>
  <path d="M5.55779 4.99958L5.76161 5.01605L10.5316 5.73605C11.2116 5.85805 11.7116 6.41605 11.7716 7.09605L12.1516 11.5761C12.2116 12.2181 12.7316 12.6981 13.3716 12.6981H40.3816C41.6016 12.6981 42.4016 13.1181 43.2016 14.0381C44.0016 14.9581 44.1416 16.2781 43.9616 17.4761L42.0616 30.5961C41.7016 33.118 39.5416 34.9761 37.0016 34.9761H15.1816C12.5216 34.9761 10.3216 32.9361 10.1016 30.298L8.26161 8.49605L5.24161 7.97605C4.44161 7.83605 3.88161 7.05605 4.02161 6.25605C4.16161 5.43605 4.94161 4.89605 5.76161 5.01605L5.55779 4.99958ZM33.8016 20.0961H28.2616C27.4216 20.0961 26.7616 20.7561 26.7616 21.5961C26.7616 22.416 27.4216 23.0961 28.2616 23.0961H33.8016C34.6416 23.0961 35.3016 22.416 35.3016 21.5961C35.3016 20.7561 34.6416 20.0961 33.8016 20.0961Z" fill="url(#paint1_linear_9_325)"/>
  <defs>
    <linearGradient id="paint0_linear_9_325" x1="24.862" y1="37.5535" x2="31.1748" y2="49.9471" gradientUnits="userSpaceOnUse">
      <stop stop-color="#8D1CFE"/>
      <stop offset="1" stop-color="#0038ED"/>
    </linearGradient>
    <linearGradient id="paint1_linear_9_325" x1="22.2788" y1="2.11275" x2="55.0806" y2="20.3602" gradientUnits="userSpaceOnUse">
      <stop stop-color="#8D1CFE"/>
      <stop offset="1" stop-color="#0038ED"/>
    </linearGradient>
  </defs>
</svg>