<svg xmlns="http://www.w3.org/2000/svg" width="48" height="48" viewBox="0 0 48 48" fill="none">
  <path opacity="0.4" d="M32.151 4H38.923C41.7275 4 44 6.2917 44 9.11993V15.949C44 18.7773 41.7275 21.069 38.923 21.069H32.151C29.3465 21.069 27.074 18.7773 27.074 15.949V9.11993C27.074 6.2917 29.3465 4 32.151 4Z" fill="url(#paint0_linear_9_331)"/>
  <path d="M15.849 26.931C18.6535 26.931 20.926 29.2227 20.926 32.051V38.8801C20.926 41.7064 18.6535 44 15.849 44H9.07705C6.27251 44 4 41.7064 4 38.8801V32.051C4 29.2227 6.27251 26.931 9.07705 26.931H15.849ZM38.923 26.931C41.7275 26.931 44 29.2227 44 32.051V38.8801C44 41.7064 41.7275 44 38.923 44H32.151C29.3465 44 27.074 41.7064 27.074 38.8801V32.051C27.074 29.2227 29.3465 26.931 32.151 26.931H38.923ZM15.849 4C18.6535 4 20.926 6.2917 20.926 9.11993V15.949C20.926 18.7773 18.6535 21.069 15.849 21.069H9.07705C6.27251 21.069 4 18.7773 4 15.949V9.11993C4 6.2917 6.27251 4 9.07705 4H15.849Z" fill="url(#paint1_linear_9_331)"/>
  <defs>
    <linearGradient id="paint0_linear_9_331" x1="34.8026" y1="2.35632" x2="50.3166" y2="8.76491" gradientUnits="userSpaceOnUse">
      <stop stop-color="#8D1CFE"/>
      <stop offset="1" stop-color="#0038ED"/>
    </linearGradient>
    <linearGradient id="paint1_linear_9_331" x1="22.2645" y1="0.148151" x2="58.8372" y2="15.3833" gradientUnits="userSpaceOnUse">
      <stop stop-color="#8D1CFE"/>
      <stop offset="1" stop-color="#0038ED"/>
    </linearGradient>
  </defs>
</svg>