<svg xmlns="http://www.w3.org/2000/svg" width="33" height="32" viewBox="0 0 33 32" fill="none">
  <path d="M12.293 19.5C13.1214 19.5 13.793 18.8284 13.793 18C13.793 17.1716 13.1214 16.5 12.293 16.5C11.4645 16.5 10.793 17.1716 10.793 18C10.793 18.8284 11.4645 19.5 12.293 19.5Z" fill="#858584"/>
  <path d="M20.293 19.5C21.1214 19.5 21.793 18.8284 21.793 18C21.793 17.1716 21.1214 16.5 20.293 16.5C19.4645 16.5 18.793 17.1716 18.793 18C18.793 18.8284 19.4645 19.5 20.293 19.5Z" fill="#858584"/>
  <path fill-rule="evenodd" clip-rule="evenodd" d="M16.2847 9.99959C14.1169 9.98356 11.9598 10.3055 9.89113 10.9539C9.36412 11.119 8.803 10.8257 8.63783 10.2987C8.47266 9.77168 8.76599 9.21056 9.293 9.04539C11.5576 8.33563 13.9189 7.98281 16.2921 7.99959C18.6652 7.98281 21.0265 8.33563 23.2911 9.04539C23.8181 9.21056 24.1115 9.77168 23.9463 10.2987C23.7811 10.8257 23.22 11.119 22.693 10.9539C20.6243 10.3055 18.4673 9.98356 16.2995 9.99959H16.2847Z" fill="#858584"/>
  <path fill-rule="evenodd" clip-rule="evenodd" d="M8.63783 21.7012C8.803 21.1742 9.36412 20.8809 9.89113 21.046C11.9598 21.6944 14.1169 22.0163 16.2847 22.0003H16.2995C18.4673 22.0163 20.6243 21.6944 22.693 21.046C23.22 20.8809 23.7811 21.1742 23.9463 21.7012C24.1115 22.2282 23.8181 22.7893 23.2911 22.9545C21.0265 23.6643 18.6652 24.0171 16.2921 24.0003C13.9189 24.0171 11.5576 23.6643 9.293 22.9545C8.76599 22.7893 8.47266 22.2282 8.63783 21.7012Z" fill="#858584"/>
  <path fill-rule="evenodd" clip-rule="evenodd" d="M20.5124 4.81121C20.9429 4.56852 21.4476 4.49267 21.9303 4.59812C23.2479 4.88366 24.5378 5.28424 25.7853 5.79524C26.0661 5.90352 26.3183 6.07496 26.5224 6.29638C26.7286 6.52018 26.88 6.78885 26.9645 7.08115L31.2003 21.2255C31.3108 21.594 31.3134 21.9865 31.2077 22.3563C31.102 22.7262 30.8925 23.0581 30.604 23.3126L30.5989 23.3171C28.5314 25.1161 25.73 26.4777 22.5481 27.2577C22.1061 27.3703 21.6387 27.3265 21.2252 27.1336C20.8134 26.9414 20.4806 26.6132 20.2828 26.2044L18.7745 23.2129C18.5259 22.7197 18.7241 22.1184 19.2173 21.8698C19.7104 21.6211 20.3118 21.8194 20.5604 22.3125L22.0729 25.3125L22.074 25.3147C25.0119 24.5943 27.506 23.3571 29.286 21.8083L29.9425 22.5627L29.2809 21.8128C29.2827 21.8113 29.284 21.8092 29.2846 21.8069C29.2853 21.8046 29.2853 21.8022 29.2846 21.7999L25.0485 7.65465C25.045 7.65325 25.0414 7.65182 25.0379 7.65037C23.895 7.18149 22.713 6.81412 21.5057 6.55253L21.5035 6.55205C21.5005 6.55139 21.4974 6.55186 21.4947 6.55337C21.4923 6.55473 21.4904 6.55684 21.4893 6.55937L20.5044 9.53905C20.3311 10.0634 19.7655 10.348 19.2411 10.1747C18.7167 10.0013 18.4322 9.43574 18.6055 8.91136L19.5959 5.91516C19.7554 5.44707 20.0817 5.0541 20.5124 4.81121Z" fill="#858584"/>
  <path fill-rule="evenodd" clip-rule="evenodd" d="M11.0912 6.55337C11.0885 6.55186 11.0854 6.55139 11.0824 6.55205L11.0802 6.55252C9.87285 6.81412 8.69089 7.18148 7.54798 7.65037C7.54446 7.65182 7.54092 7.65324 7.53737 7.65465L3.30139 21.7996C3.30071 21.8019 3.30061 21.8046 3.30126 21.8069C3.30185 21.809 3.30297 21.8108 3.30449 21.8123C5.08418 23.3593 7.57657 24.5949 10.5119 25.3147L10.513 25.3125L12.0255 22.3125C12.2741 21.8194 12.8755 21.6211 13.3686 21.8698C13.8618 22.1184 14.06 22.7197 13.8114 23.2129L12.3031 26.2045C12.1052 26.6132 11.7724 26.9414 11.3607 27.1336C10.9472 27.3265 10.4798 27.3703 10.0378 27.2577C6.85584 26.4777 4.05447 25.1161 1.98701 23.3171L1.98183 23.3126C1.69336 23.0581 1.4839 22.7262 1.37821 22.3563C1.27256 21.9865 1.27508 21.5942 1.38546 21.2258C1.38543 21.2259 1.38549 21.2257 1.38546 21.2258L5.62136 7.08117C5.70588 6.78887 5.85723 6.52019 6.06348 6.29638C6.26754 6.07496 6.51976 5.90352 6.80056 5.79524C8.04843 5.28409 9.33874 4.88344 10.6567 4.59788C11.1391 4.49279 11.6433 4.5687 12.0735 4.81121C12.5042 5.05409 12.8305 5.44708 12.99 5.91518L12.9929 5.92385L13.9804 8.91136C14.1537 9.43574 13.8692 10.0013 13.3448 10.1747C12.8204 10.348 12.2548 10.0634 12.0815 9.53905L11.0965 6.55937C11.0955 6.55684 11.0936 6.55473 11.0912 6.55337Z" fill="#858584"/>
  <path d="M12.293 19.5C13.1214 19.5 13.793 18.8284 13.793 18C13.793 17.1716 13.1214 16.5 12.293 16.5C11.4645 16.5 10.793 17.1716 10.793 18C10.793 18.8284 11.4645 19.5 12.293 19.5Z" fill="#858584"/>
  <path d="M20.293 19.5C21.1214 19.5 21.793 18.8284 21.793 18C21.793 17.1716 21.1214 16.5 20.293 16.5C19.4645 16.5 18.793 17.1716 18.793 18C18.793 18.8284 19.4645 19.5 20.293 19.5Z" fill="#858584"/>
  <path fill-rule="evenodd" clip-rule="evenodd" d="M16.2847 9.99959C14.1169 9.98356 11.9598 10.3055 9.89113 10.9539C9.36412 11.119 8.803 10.8257 8.63783 10.2987C8.47266 9.77168 8.76599 9.21056 9.293 9.04539C11.5576 8.33563 13.9189 7.98281 16.2921 7.99959C18.6652 7.98281 21.0265 8.33563 23.2911 9.04539C23.8181 9.21056 24.1115 9.77168 23.9463 10.2987C23.7811 10.8257 23.22 11.119 22.693 10.9539C20.6243 10.3055 18.4673 9.98356 16.2995 9.99959H16.2847Z" fill="#858584"/>
  <path fill-rule="evenodd" clip-rule="evenodd" d="M8.63783 21.7012C8.803 21.1742 9.36412 20.8809 9.89113 21.046C11.9598 21.6944 14.1169 22.0163 16.2847 22.0003H16.2995C18.4673 22.0163 20.6243 21.6944 22.693 21.046C23.22 20.8809 23.7811 21.1742 23.9463 21.7012C24.1115 22.2282 23.8181 22.7893 23.2911 22.9545C21.0265 23.6643 18.6652 24.0171 16.2921 24.0003C13.9189 24.0171 11.5576 23.6643 9.293 22.9545C8.76599 22.7893 8.47266 22.2282 8.63783 21.7012Z" fill="#858584"/>
  <path fill-rule="evenodd" clip-rule="evenodd" d="M20.5124 4.81121C20.9429 4.56852 21.4476 4.49267 21.9303 4.59812C23.2479 4.88366 24.5378 5.28424 25.7853 5.79524C26.0661 5.90352 26.3183 6.07496 26.5224 6.29638C26.7286 6.52018 26.88 6.78885 26.9645 7.08115L31.2003 21.2255C31.3108 21.594 31.3134 21.9865 31.2077 22.3563C31.102 22.7262 30.8925 23.0581 30.604 23.3126L30.5989 23.3171C28.5314 25.1161 25.73 26.4777 22.5481 27.2577C22.1061 27.3703 21.6387 27.3265 21.2252 27.1336C20.8134 26.9414 20.4806 26.6132 20.2828 26.2044L18.7745 23.2129C18.5259 22.7197 18.7241 22.1184 19.2173 21.8698C19.7104 21.6211 20.3118 21.8194 20.5604 22.3125L22.0729 25.3125L22.074 25.3147C25.0119 24.5943 27.506 23.3571 29.286 21.8083L29.9425 22.5627L29.2809 21.8128C29.2827 21.8113 29.284 21.8092 29.2846 21.8069C29.2853 21.8046 29.2853 21.8022 29.2846 21.7999L25.0485 7.65465C25.045 7.65325 25.0414 7.65182 25.0379 7.65037C23.895 7.18149 22.713 6.81412 21.5057 6.55253L21.5035 6.55205C21.5005 6.55139 21.4974 6.55186 21.4947 6.55337C21.4923 6.55473 21.4904 6.55684 21.4893 6.55937L20.5044 9.53905C20.3311 10.0634 19.7655 10.348 19.2411 10.1747C18.7167 10.0013 18.4322 9.43574 18.6055 8.91136L19.5959 5.91516C19.7554 5.44707 20.0817 5.0541 20.5124 4.81121Z" fill="#858584"/>
  <path fill-rule="evenodd" clip-rule="evenodd" d="M11.0912 6.55337C11.0885 6.55186 11.0854 6.55139 11.0824 6.55205L11.0802 6.55252C9.87285 6.81412 8.69089 7.18148 7.54798 7.65037C7.54446 7.65182 7.54092 7.65324 7.53737 7.65465L3.30139 21.7996C3.30071 21.8019 3.30061 21.8046 3.30126 21.8069C3.30185 21.809 3.30297 21.8108 3.30449 21.8123C5.08418 23.3593 7.57657 24.5949 10.5119 25.3147L10.513 25.3125L12.0255 22.3125C12.2741 21.8194 12.8755 21.6211 13.3686 21.8698C13.8618 22.1184 14.06 22.7197 13.8114 23.2129L12.3031 26.2045C12.1052 26.6132 11.7724 26.9414 11.3607 27.1336C10.9472 27.3265 10.4798 27.3703 10.0378 27.2577C6.85584 26.4777 4.05447 25.1161 1.98701 23.3171L1.98183 23.3126C1.69336 23.0581 1.4839 22.7262 1.37821 22.3563C1.27256 21.9865 1.27508 21.5942 1.38546 21.2258C1.38543 21.2259 1.38549 21.2257 1.38546 21.2258L5.62136 7.08117C5.70588 6.78887 5.85723 6.52019 6.06348 6.29638C6.26754 6.07496 6.51976 5.90352 6.80056 5.79524C8.04843 5.28409 9.33874 4.88344 10.6567 4.59788C11.1391 4.49279 11.6433 4.5687 12.0735 4.81121C12.5042 5.05409 12.8305 5.44708 12.99 5.91518L12.9929 5.92385L13.9804 8.91136C14.1537 9.43574 13.8692 10.0013 13.3448 10.1747C12.8204 10.348 12.2548 10.0634 12.0815 9.53905L11.0965 6.55937C11.0955 6.55684 11.0936 6.55473 11.0912 6.55337Z" fill="#858584"/>
</svg>