<svg xmlns="http://www.w3.org/2000/svg" width="33" height="32" viewBox="0 0 33 32" fill="none">
  <path fill-rule="evenodd" clip-rule="evenodd" d="M6.29297 12.4502C6.84525 12.4502 7.29297 12.8979 7.29297 13.4502V26.0002H25.293V13.4502C25.293 12.8979 25.7407 12.4502 26.293 12.4502C26.8453 12.4502 27.293 12.8979 27.293 13.4502V26.0002C27.293 26.5306 27.0823 27.0393 26.7072 27.4144C26.3321 27.7895 25.8234 28.0002 25.293 28.0002H7.29297C6.76254 28.0002 6.25383 27.7895 5.87876 27.4144C5.50368 27.0393 5.29297 26.5306 5.29297 26.0002V13.4502C5.29297 12.8979 5.74068 12.4502 6.29297 12.4502Z" fill="#A259FF"/>
  <path fill-rule="evenodd" clip-rule="evenodd" d="M3.29297 5C3.29297 4.44772 3.74068 4 4.29297 4H28.293C28.8453 4 29.293 4.44772 29.293 5C29.293 5.55228 28.8453 6 28.293 6H4.29297C3.74068 6 3.29297 5.55228 3.29297 5Z" fill="#A259FF"/>
  <path fill-rule="evenodd" clip-rule="evenodd" d="M4.29297 7C4.84525 7 5.29297 7.44772 5.29297 8V10C5.29297 10.7956 5.60904 11.5587 6.17165 12.1213C6.73426 12.6839 7.49732 13 8.29297 13C9.08862 13 9.85168 12.6839 10.4143 12.1213C10.9769 11.5587 11.293 10.7956 11.293 10V8C11.293 7.44772 11.7407 7 12.293 7C12.8453 7 13.293 7.44772 13.293 8V10C13.293 11.3261 12.7662 12.5979 11.8285 13.5355C10.8908 14.4732 9.61905 15 8.29297 15C6.96689 15 5.69512 14.4732 4.75743 13.5355C3.81975 12.5979 3.29297 11.3261 3.29297 10V8C3.29297 7.44772 3.74068 7 4.29297 7Z" fill="#A259FF"/>
  <path fill-rule="evenodd" clip-rule="evenodd" d="M12.293 7C12.8453 7 13.293 7.44772 13.293 8V10C13.293 10.7956 13.609 11.5587 14.1716 12.1213C14.7343 12.6839 15.4973 13 16.293 13C17.0886 13 17.8517 12.6839 18.4143 12.1213C18.9769 11.5587 19.293 10.7956 19.293 10V8C19.293 7.44772 19.7407 7 20.293 7C20.8453 7 21.293 7.44772 21.293 8V10C21.293 11.3261 20.7662 12.5979 19.8285 13.5355C18.8908 14.4732 17.6191 15 16.293 15C14.9669 15 13.6951 14.4732 12.7574 13.5355C11.8198 12.5979 11.293 11.3261 11.293 10V8C11.293 7.44772 11.7407 7 12.293 7Z" fill="#A259FF"/>
  <path fill-rule="evenodd" clip-rule="evenodd" d="M20.293 7C20.8453 7 21.293 7.44772 21.293 8V10C21.293 10.7956 21.609 11.5587 22.1716 12.1213C22.7343 12.6839 23.4973 13 24.293 13C25.0886 13 25.8517 12.6839 26.4143 12.1213C26.9769 11.5587 27.293 10.7956 27.293 10V8C27.293 7.44772 27.7407 7 28.293 7C28.8453 7 29.293 7.44772 29.293 8V10C29.293 11.3261 28.7662 12.5979 27.8285 13.5355C26.8908 14.4732 25.6191 15 24.293 15C22.9669 15 21.6951 14.4732 20.7574 13.5355C19.8198 12.5979 19.293 11.3261 19.293 10V8C19.293 7.44772 19.7407 7 20.293 7Z" fill="#A259FF"/>
</svg>