<svg xmlns="http://www.w3.org/2000/svg" width="33" height="32" viewBox="0 0 33 32" fill="none">
  <path d="M16.2936 11.0005C16.2936 8.25045 18.6061 5.96295 21.3561 6.00045C22.3192 6.01157 23.2586 6.3006 24.0613 6.8328C24.864 7.365 25.496 8.11771 25.8811 9.00045H30.2936L26.2561 13.038C25.9956 17.0937 24.2002 20.8979 21.2351 23.6773C18.27 26.4566 14.3577 28.0025 10.2936 28.0005C6.29364 28.0005 5.29364 26.5005 5.29364 26.5005C5.29364 26.5005 9.29364 25.0005 11.2936 22.0005C11.2936 22.0005 3.29364 18.0005 5.29364 7.00045C5.29364 7.00045 10.2936 12.0005 16.2936 13.0005V11.0005Z" stroke="#858584" stroke-width="2" stroke-linecap="round" stroke-linejoin="round"/>
</svg>