<svg xmlns="http://www.w3.org/2000/svg" width="249" height="30" viewBox="0 0 249 30" fill="none">
  <path d="M0.786687 28.2135C0.536936 28.3313 0.429976 28.6292 0.547786 28.879C0.665596 29.1287 0.963562 29.2357 1.21331 29.1179L0.786687 28.2135ZM249 28.6657L245.686 23.9383L243.249 29.1723L249 28.6657ZM1.21331 29.1179C2.08898 28.7048 2.96704 28.296 3.84747 27.8915L3.42995 26.9828C2.54648 27.3888 1.66538 27.799 0.786687 28.2135L1.21331 29.1179ZM9.15277 25.5181C10.9276 24.7455 12.7116 23.9901 14.5047 23.2521L14.1241 22.3273C12.3248 23.0679 10.5346 23.8259 8.75362 24.6013L9.15277 25.5181ZM19.9013 21.0942C21.7055 20.3937 23.5185 19.7108 25.34 19.0455L24.997 18.1062C23.1692 18.7738 21.3499 19.4591 19.5394 20.162L19.9013 21.0942ZM30.8193 17.1068C32.65 16.4797 34.489 15.8704 36.3361 15.2791L36.0312 14.3267C34.1777 14.9201 32.3323 15.5315 30.4952 16.1608L30.8193 17.1068ZM41.8892 13.5628C43.7435 13.0102 45.6055 12.4755 47.475 11.9591L47.2088 10.9952C45.3327 11.5134 43.4643 12.0499 41.6036 12.6045L41.8892 13.5628ZM53.0931 10.468C54.9678 9.99068 56.8498 9.53154 58.7388 9.09083L58.5116 8.11698C56.616 8.55922 54.7275 9.01995 52.8464 9.49897L53.0931 10.468ZM64.4127 7.82725C66.3047 7.42583 68.2035 7.04283 70.109 6.67845L69.9212 5.69625C68.0091 6.06189 66.1037 6.44621 64.2051 6.84902L64.4127 7.82725ZM75.8288 5.6441C77.7353 5.31907 79.6481 5.01262 81.5671 4.72494L81.4188 3.73599C79.4933 4.02466 77.5738 4.33217 75.6608 4.65832L75.8288 5.6441ZM87.3234 3.92084C89.2413 3.67246 91.1651 3.4428 93.0945 3.23202L92.9859 2.23794C91.0499 2.44943 89.1195 2.67989 87.195 2.92912L87.3234 3.92084ZM98.8778 2.65852C100.804 2.48685 102.736 2.33398 104.673 2.2001L104.604 1.20248C102.66 1.33682 100.722 1.49021 98.7891 1.66247L98.8778 2.65852ZM110.474 1.85686C112.405 1.76176 114.341 1.68551 116.282 1.6283L116.253 0.628738C114.305 0.686139 112.362 0.762644 110.424 0.858074L110.474 1.85686ZM122.093 1.51425C123.061 1.50476 124.03 1.5 125 1.5V0.5C124.026 0.5 123.054 0.504773 122.083 0.514296L122.093 1.51425ZM125 1.5C125.97 1.5 126.939 1.50476 127.908 1.51425L127.917 0.514297C126.946 0.504773 125.974 0.5 125 0.5V1.5ZM133.718 1.6283C135.659 1.68551 137.595 1.76176 139.526 1.85687L139.576 0.858076C137.638 0.762645 135.695 0.68614 133.747 0.628739L133.718 1.6283ZM145.327 2.2001C147.264 2.33398 149.196 2.48685 151.122 2.65852L151.211 1.66247C149.278 1.49021 147.34 1.33682 145.396 1.20248L145.327 2.2001ZM156.906 3.23202C158.835 3.4428 160.759 3.67247 162.677 3.92084L162.805 2.92912C160.881 2.67989 158.95 2.44944 157.014 2.23794L156.906 3.23202ZM168.433 4.72494C170.352 5.01262 172.265 5.31907 174.171 5.6441L174.339 4.65832C172.426 4.33217 170.507 4.02467 168.581 3.736L168.433 4.72494ZM179.891 6.67845C181.796 7.04284 183.695 7.42583 185.587 7.82725L185.795 6.84902C183.896 6.44622 181.991 6.0619 180.079 5.69625L179.891 6.67845ZM191.261 9.09083C193.15 9.53154 195.032 9.99068 196.907 10.4681L197.154 9.49897C195.272 9.01995 193.384 8.55922 191.488 8.11698L191.261 9.09083ZM202.525 11.9591C204.395 12.4755 206.257 13.0102 208.111 13.5628L208.396 12.6045C206.536 12.0499 204.667 11.5134 202.791 10.9952L202.525 11.9591ZM213.664 15.2791C215.511 15.8704 217.35 16.4797 219.181 17.1068L219.505 16.1608C217.668 15.5315 215.822 14.9201 213.969 14.3267L213.664 15.2791ZM224.66 19.0455C226.481 19.7108 228.294 20.3937 230.099 21.0942L230.461 20.162C228.65 19.4591 226.831 18.7738 225.003 18.1062L224.66 19.0455ZM235.495 23.2521C237.288 23.9901 239.072 24.7455 240.847 25.5182L241.246 24.6013C239.465 23.826 237.675 23.0679 235.876 22.3273L235.495 23.2521ZM0.573374 27.7613C0.0738719 27.9969 -0.140047 28.5928 0.0955721 29.0923C0.331191 29.5918 0.927125 29.8057 1.42663 29.5701L0.573374 27.7613ZM249 28.6657L242.371 19.2109L237.498 29.679L249 28.6657ZM1.42663 29.5701C2.30078 29.1578 3.17732 28.7497 4.05622 28.3458L3.2212 26.5285C2.3362 26.9351 1.45358 27.3461 0.573374 27.7613L1.42663 29.5701ZM9.35234 25.9766C11.1241 25.2053 12.9051 24.4512 14.695 23.7144L13.9338 21.865C12.1314 22.6068 10.3381 23.3662 8.55404 24.1428L9.35234 25.9766ZM20.0822 21.5603C21.8834 20.861 23.6932 20.1793 25.5116 19.5152L24.8255 17.6365C22.9945 18.3052 21.1721 18.9918 19.3584 19.6959L20.0822 21.5603ZM30.9813 17.5798C32.8089 16.9538 34.6447 16.3456 36.4885 15.7553L35.8787 13.8505C34.0221 14.4449 32.1735 15.0574 30.3332 15.6877L30.9813 17.5798ZM42.032 14.042C43.8831 13.4903 45.7418 12.9566 47.6082 12.4411L47.0757 10.5132C45.1964 11.0324 43.3247 11.5698 41.4608 12.1253L42.032 14.042ZM53.2165 10.9526C55.0879 10.476 56.9666 10.0177 58.8524 9.57776L58.398 7.63006C56.4991 8.07306 54.6074 8.53458 52.723 9.01443L53.2165 10.9526ZM64.5164 8.31636C66.4052 7.91564 68.3007 7.53331 70.2029 7.16955L69.8272 5.20515C67.9119 5.57142 66.0032 5.95641 64.1013 6.35991L64.5164 8.31636ZM75.9129 6.13698C77.816 5.81252 79.7256 5.5066 81.6412 5.21942L81.3447 3.24152C79.4158 3.53069 77.4931 3.83872 75.5767 4.16543L75.9129 6.13698ZM87.3876 4.4167C89.3022 4.16875 91.2227 3.93948 93.1488 3.72906L92.9316 1.74089C90.9922 1.95275 89.0586 2.1836 87.1308 2.43326L87.3876 4.4167ZM98.9222 3.15654C100.845 2.98517 102.774 2.83256 104.707 2.69891L104.569 0.703673C102.622 0.838239 100.681 0.991889 98.7447 1.16444L98.9222 3.15654ZM110.498 2.35626C112.426 2.26131 114.359 2.1852 116.297 2.12809L116.238 0.128955C114.287 0.186453 112.341 0.263088 110.4 0.358679L110.498 2.35626ZM122.097 2.01422C123.064 2.00475 124.031 2 125 2V0C124.025 0 123.051 0.00478077 122.078 0.0143203L122.097 2.01422ZM125 2C125.969 2 126.936 2.00475 127.903 2.01422L127.922 0.0143206C126.949 0.00478089 125.975 0 125 0V2ZM133.703 2.12809C135.641 2.1852 137.574 2.26132 139.502 2.35626L139.6 0.358681C137.659 0.263089 135.713 0.186454 133.762 0.128956L133.703 2.12809ZM145.293 2.69891C147.226 2.83257 149.155 2.98517 151.078 3.15655L151.255 1.16444C149.319 0.991891 147.378 0.83824 145.431 0.703675L145.293 2.69891ZM156.851 3.72907C158.777 3.93948 160.698 4.16875 162.612 4.4167L162.869 2.43326C160.941 2.18361 159.008 1.95275 157.068 1.74089L156.851 3.72907ZM168.359 5.21942C170.274 5.5066 172.184 5.81252 174.087 6.13699L174.423 4.16543C172.507 3.83872 170.584 3.53069 168.655 3.24152L168.359 5.21942ZM179.797 7.16956C181.699 7.53331 183.595 7.91564 185.484 8.31636L185.899 6.35991C183.997 5.95641 182.088 5.57142 180.173 5.20515L179.797 7.16956ZM191.148 9.57776C193.033 10.0177 194.912 10.476 196.784 10.9526L197.277 9.01444C195.393 8.53458 193.501 8.07306 191.602 7.63006L191.148 9.57776ZM202.392 12.4411C204.258 12.9566 206.117 13.4903 207.968 14.042L208.539 12.1253C206.675 11.5698 204.804 11.0324 202.924 10.5132L202.392 12.4411ZM213.511 15.7553C215.355 16.3456 217.191 16.9538 219.019 17.5798L219.667 15.6877C217.827 15.0574 215.978 14.4449 214.121 13.8505L213.511 15.7553ZM224.488 19.5152C226.307 20.1793 228.117 20.861 229.918 21.5603L230.642 19.6959C228.828 18.9918 227.006 18.3053 225.175 17.6365L224.488 19.5152ZM235.305 23.7144C237.095 24.4512 238.876 25.2053 240.648 25.9766L241.446 24.1428C239.662 23.3662 237.869 22.6068 236.066 21.865L235.305 23.7144Z" fill="#fff"/>
</svg>