<svg xmlns="http://www.w3.org/2000/svg" width="33" height="32" viewBox="0 0 33 32" fill="none">
  <path fill-rule="evenodd" clip-rule="evenodd" d="M13.8211 11.1183C14.1463 10.9443 14.5408 10.9634 14.8477 11.168L20.8477 15.168C21.1259 15.3534 21.293 15.6656 21.293 16C21.293 16.3344 21.1259 16.6466 20.8477 16.8321L14.8477 20.8321C14.5408 21.0366 14.1463 21.0557 13.8211 20.8817C13.496 20.7077 13.293 20.3688 13.293 20V12C13.293 11.6312 13.496 11.2923 13.8211 11.1183ZM15.293 13.8685V18.1315L18.4902 16L15.293 13.8685Z" fill="#858584"/>
  <path fill-rule="evenodd" clip-rule="evenodd" d="M16.2915 5.04985L16.2746 5.0498L16.2118 5.04983C16.1573 5.04996 16.0779 5.05035 15.9761 5.05143C15.7724 5.05359 15.4786 5.0585 15.1136 5.06945C14.3841 5.09135 13.3675 5.13749 12.2167 5.23466C9.9403 5.42685 7.04225 5.82571 4.81105 6.67823L4.79635 6.68398C4.35808 6.85941 3.96717 7.13539 3.65515 7.48966C3.34313 7.84393 3.11874 8.26657 3.00008 8.7235L2.99911 8.72726C2.6877 9.94582 2.29297 12.2055 2.29297 15.9999C2.29297 19.7942 2.6877 22.0539 2.99911 23.2725L3.00008 23.2762C3.11874 23.7332 3.34313 24.1558 3.65515 24.5101C3.96717 24.8643 4.35807 25.1403 4.79635 25.3157L4.81105 25.3215C7.04225 26.174 9.9403 26.5729 12.2167 26.7651C13.3675 26.8622 14.3841 26.9084 15.1136 26.9303C15.4786 26.9412 15.7724 26.9461 15.9761 26.9483C16.0779 26.9494 16.1573 26.9498 16.2118 26.9499L16.2746 26.9499L16.2915 26.9499H16.2945L16.3113 26.9499L16.3741 26.9499C16.4286 26.9498 16.508 26.9494 16.6099 26.9483C16.8135 26.9461 17.1074 26.9412 17.4724 26.9303C18.2018 26.9084 19.2184 26.8622 20.3693 26.7651C22.6456 26.5729 25.5437 26.174 27.7749 25.3215L27.7896 25.3157C28.2279 25.1403 28.6188 24.8643 28.9308 24.5101C29.2428 24.1558 29.4672 23.7332 29.5859 23.2762L29.5868 23.2725C29.8982 22.0539 30.293 19.7942 30.293 15.9999C30.293 12.2055 29.8982 9.94582 29.5868 8.72726L29.5859 8.7235C29.4672 8.26657 29.2428 7.84393 28.9308 7.48966C28.6188 7.13539 28.2279 6.85941 27.7896 6.68398L27.7749 6.67823C25.5437 5.82571 22.6456 5.42685 20.3693 5.23466C19.2184 5.13749 18.2018 5.09135 17.4724 5.06945C17.1074 5.0585 16.8135 5.05359 16.6099 5.05143C16.508 5.05035 16.4286 5.04996 16.3741 5.04983L16.3113 5.0498L16.2945 5.04985H16.2915ZM16.2877 24.9499L16.2984 24.9498L16.3016 24.9499L16.3147 24.9499L16.3697 24.9499C16.4188 24.9498 16.4926 24.9494 16.5886 24.9484C16.7807 24.9464 17.0616 24.9417 17.4124 24.9312C18.1146 24.9101 19.0941 24.8656 20.201 24.7722C22.4371 24.5834 25.0971 24.2018 27.0526 23.4565C27.1974 23.3974 27.3265 23.3056 27.4299 23.1882C27.5344 23.0695 27.6097 22.928 27.6497 22.7751C27.9132 21.7429 28.293 19.6529 28.293 15.9999C28.293 12.3468 27.9132 10.2568 27.6497 9.22464C27.6097 9.07168 27.5344 8.9302 27.4299 8.81154C27.3265 8.69415 27.1974 8.60233 27.0526 8.54326C25.0971 7.79791 22.4371 7.41635 20.201 7.22757C19.0941 7.13411 18.1146 7.08963 17.4124 7.06855C17.0616 7.05802 16.7807 7.05336 16.5886 7.05132C16.4926 7.0503 16.4188 7.04994 16.3697 7.04983L16.3147 7.0498L16.3016 7.04983L16.2987 7.04985L16.2876 7.04991L16.2844 7.04983L16.2713 7.0498L16.2163 7.04983C16.1671 7.04994 16.0933 7.0503 15.9973 7.05132C15.8052 7.05336 15.5244 7.05802 15.1736 7.06855C14.4713 7.08963 13.4918 7.13411 12.3849 7.22757C10.1489 7.41635 7.48887 7.79791 5.53336 8.54327C5.38858 8.60234 5.25942 8.69415 5.15603 8.81154C5.05152 8.9302 4.97626 9.07168 4.93627 9.22464C4.6727 10.2569 4.29297 12.3468 4.29297 15.9999C4.29297 19.6529 4.6727 21.7429 4.93627 22.7751C4.97626 22.928 5.05152 23.0695 5.15603 23.1882C5.25942 23.3056 5.38857 23.3974 5.53335 23.4565C7.48886 24.2018 10.1489 24.5834 12.3849 24.7722C13.4918 24.8656 14.4713 24.9101 15.1736 24.9312C15.5244 24.9417 15.8052 24.9464 15.9973 24.9484C16.0933 24.9494 16.1671 24.9498 16.2163 24.9499L16.2713 24.9499L16.2844 24.9499L16.2877 24.9499Z" fill="#858584"/>
</svg>